<?xml version="1.0" encoding="UTF-8"?>
<svg version="1.1" viewBox="0 0 112 183" xmlns="http://www.w3.org/2000/svg">
<title>Bulb</title>
<desc>Created with Sketch.</desc>
<g fill="none" fill-rule="evenodd">
<g transform="translate(0)" fill="#1C2C40">
<path d="m77.725 63.69c-1.8986 0.2806-3.4944 1.5799-4.1548 3.3794l-11.804 29.884c-1.2963 2.5864-0.24152 5.731 2.351 7.0211 2.5926 1.2932 5.7446 0.24095 7.0378-2.3424 0.13758-0.27755 0.25375-0.5673 0.33936-0.86315l11.807-29.881c1.1159-2.6688-0.14981-5.734-2.8249-6.8472-0.87132-0.3599-1.8191-0.4819-2.7515-0.35075zm-44.709 0c-2.8861 0.26535-5.0108 2.8152-4.7418 5.6974 0.045859 0.51545 0.17121 1.0218 0.36687 1.5006l11.807 29.881c0.81934 2.7755 3.739 4.3615 6.5181 3.5441 2.7821-0.8174 4.3719-3.7302 3.5495-6.5026-0.085603-0.29585-0.19872-0.58255-0.33936-0.85705l-11.804-29.884c-0.82546-2.196-3.0145-3.5776-5.3563-3.3794zm22.957-53.219c25.207 0 45.474 20.136 45.474 45.256 0 8.6803-2.5712 16.802-6.8849 23.778l-0.33018 0.43615-0.21401 0.54595c-7.3466 15.506-18.475 32.967-18.475 51.911v3.599c0 1.098-0.54419 1.6348-1.6417 1.6348h-35.856c-1.1006 0-1.6387-0.5368-1.6387-1.6348v-3.599c0-18.944-11.131-36.405-18.475-51.911l-0.22012-0.54595-0.32713-0.43615c-4.3168-6.9754-6.888-15.098-6.888-23.778 0-25.123 20.27-45.256 45.477-45.256zm0-10.471c-30.872 0-55.972 24.931-55.972 55.727 0 10.73 3.1551 20.725 8.4166 29.228 7.5973 16.046 17.491 33.41 17.491 47.44v3.599c0 2.5193 0.77349 4.8312 2.0789 6.7649v29.771h6.995v3.4922c0 3.8674 3.1215 6.9784 6.9981 6.9784h27.983c3.8766 0 6.9981-3.111 6.9981-6.9784v-3.4922h6.995v-29.771c1.3085-1.9306 2.0789-4.2456 2.0789-6.7649v-3.599c0-14.033 9.8933-31.394 17.491-47.44 5.2615-8.5034 8.4166-18.498 8.4166-29.228 0-30.796-25.1-55.727-55.969-55.727z"/>
</g>
</g>
</svg>
