<?xml version="1.0" encoding="UTF-8"?>
<svg width="112px" height="183px" viewBox="0 0 112 183" version="1.1" xmlns="http://www.w3.org/2000/svg" xmlns:xlink="http://www.w3.org/1999/xlink">
    <!-- Generator: Sketch 52.4 (67378) - http://www.bohemiancoding.com/sketch -->
    <title>Bulb</title>
    <desc>Created with Sketch.</desc>
    <g id="Bulb" stroke="none" stroke-width="1" fill="none" fill-rule="evenodd">
        <g id="Bulb-01" transform="translate(0.000000, 0.000000)" fill="#1C2C40">
            <path d="M77.7246616,63.6901 C75.8261046,63.9707 74.2302161,65.27 73.5698484,67.0695 L61.7657766,96.9534 C60.4694993,99.5398 61.5242532,102.68435 64.1168077,103.9745 C66.7093622,105.2677 69.8613949,104.21545 71.1546149,101.6321 C71.2921915,101.35455 71.4083673,101.0648 71.4939705,100.76895 L83.3010996,70.8881 C84.4169986,68.21935 83.1512939,65.1541 80.4761935,64.04085 C79.6048751,63.68095 78.6571252,63.55895 77.7246616,63.6901 Z M33.0153255,63.6901 C30.1292743,63.95545 28.0044802,66.50525 28.2735189,69.3875 C28.3193777,69.90295 28.4447253,70.40925 28.6403898,70.8881 L40.4475189,100.76895 C41.2668639,103.54445 44.186545,105.13045 46.9655922,104.31305 C49.7476967,103.49565 51.3374707,100.5829 50.5150684,97.81045 C50.4294652,97.5146 50.3163466,97.2279 50.1757128,96.9534 L38.3716409,67.0695 C37.5461814,64.8735 35.3571849,63.49185 33.0153255,63.6901 Z M55.9722733,10.47065 C81.1793627,10.47065 101.445924,30.60675 101.445924,55.72655 C101.445924,64.40685 98.8747701,72.529 94.5609795,79.50435 L94.2307957,79.9405 L94.0167877,80.48645 C86.6701975,95.99265 75.5417796,113.4539 75.5417796,132.39745 L75.5417796,135.99645 C75.5417796,137.09445 74.9975878,137.63125 73.9000323,137.63125 L38.0445144,137.63125 C36.9439016,137.63125 36.4058243,137.09445 36.4058243,135.99645 L36.4058243,132.39745 C36.4058243,113.4539 25.2743491,95.99265 17.9308162,80.48645 L17.7106936,79.9405 L17.3835671,79.50435 C13.0667193,72.529 10.4955656,64.40685 10.4955656,55.72655 C10.4955656,30.6037 30.7651839,10.47065 55.9722733,10.47065 Z M55.9722733,0 C25.1000854,0 0,24.9307 0,55.72655 C0,66.45645 3.15508991,76.4513 8.41663035,84.9547 C16.0139156,101.00075 25.9072014,118.3644 25.9072014,132.3944 L25.9072014,135.9934 C25.9072014,138.5127 26.6806876,140.8246 27.9861367,142.7583 L27.9861367,172.52935 L34.9811422,172.52935 L34.9811422,176.0216 C34.9811422,179.889 38.1026023,183 41.979205,183 L69.9622844,183 C73.8388871,183 76.9603472,179.889 76.9603472,176.0216 L76.9603472,172.52935 L83.9553527,172.52935 L83.9553527,142.7583 C85.263859,140.82765 86.0342879,138.5127 86.0342879,135.9934 L86.0342879,132.3944 C86.0342879,118.36135 95.9275737,101.00075 103.524859,84.9547 C108.786399,76.4513 111.941489,66.45645 111.941489,55.72655 C111.941489,24.9307 86.8414039,0 55.9722733,0 Z" id="Fill-1"></path>
        </g>
    </g>
</svg>