<?xml version="1.0" encoding="UTF-8"?>
<svg width="183px" height="183px" viewBox="0 0 183 183" version="1.1" xmlns="http://www.w3.org/2000/svg" xmlns:xlink="http://www.w3.org/1999/xlink">
    <!-- Generator: Sketch 52.4 (67378) - http://www.bohemiancoding.com/sketch -->
    <title>Globe</title>
    <desc>Created with Sketch.</desc>
    <g id="Globe" stroke="none" stroke-width="1" fill="none" fill-rule="evenodd">
        <g id="Globe-05" fill="#1C2C40">
            <path d="M63.1490769,46.9409077 L66.2488154,48.8469231 L64.1034923,51.7073538 L63.1490769,46.9409077 Z M106.277954,40.5077538 L107.471677,43.6074923 L104.850554,45.0348923 L103.896138,40.9835538 L106.277954,40.5105692 L106.277954,40.5077538 Z M58.3826308,28.1172462 L61.4823692,29.5474615 L61.4823692,32.1714 L58.8612462,32.1714 L56.0008154,29.7867692 L58.3826308,28.1172462 Z M99.369,27.4049538 L101.275015,29.5474615 L97.4629846,32.1714 L95.3176615,30.7383692 L95.5569692,28.5930462 L96.7478769,28.8351692 L99.369,27.4049538 Z M130.107369,22.875 L134.158708,24.3052154 L141.543462,25.7354308 L139.876754,27.8779385 L135.588923,27.8779385 L139.876754,32.1714 L142.973677,28.5930462 L143.928092,26.9263385 C143.928092,26.9263385 155.6964,37.6304308 162.512446,49.3283538 C169.331308,61.0234615 172.521138,74.8807846 172.521138,77.6792769 L170.375815,80.3004 C168.9456,78.6168 167.239477,77.2541538 165.612185,75.7732615 L162.036646,76.2490615 L158.939723,72.4370308 L158.939723,77.2034769 L161.560846,79.1094923 L163.703354,81.4913077 L166.087985,78.3943846 C166.721446,79.5684 167.129677,80.7959077 167.754692,81.9699231 L167.754692,85.5426462 L165.133569,88.6395692 L159.891323,92.2151077 L156.3186,96.0271385 C158.058508,95.9004462 159.778708,95.5372615 161.560846,95.3120308 L161.560846,97.9331538 L157.748815,107.226738 L154.412585,110.802277 L151.552154,116.756815 L151.552154,126.765508 L152.506569,130.577538 L151.076354,132.247062 L147.740123,134.628877 L144.164585,137.489308 L147.025015,140.825538 L142.973677,144.398262 L143.688785,146.780077 L137.731431,153.452538 L133.680092,153.452538 L130.107369,155.837169 L127.962046,155.837169 L127.962046,152.737431 L127.244123,147.258692 C126.041954,143.722569 124.710277,140.048492 123.432092,136.534892 C123.432092,133.944738 123.510923,131.500985 123.6714,128.910831 L125.101615,125.335292 L122.956292,121.047462 L123.192785,115.329415 L120.337985,111.753877 L121.7682,107.226738 L119.147077,104.366308 L115.095738,104.366308 L113.665523,102.938908 L109.614185,105.320723 L107.708169,103.6512 L104.132631,106.987431 C101.4918,103.994677 98.6792308,100.925908 96.0327692,97.9331538 L92.6965385,90.5455846 L95.5569692,86.2577538 L94.1267538,84.3517385 L97.4601692,76.4883692 C100.269923,72.9916615 103.307723,69.6075692 106.277954,66.2431846 L111.5202,64.8129692 L117.477554,64.0950462 L121.528892,65.2887692 L127.246938,71.0068154 L129.152954,68.8614923 L132.252692,68.1492 L137.494938,70.0552154 L141.306969,70.0552154 L144.164585,67.4340923 L145.358308,65.7645692 L142.737185,64.0950462 L137.970738,63.8557385 C136.675662,62.0623385 135.4566,60.2126308 133.9194,58.6134923 L132.489185,59.0921077 L131.771262,63.8557385 L128.913646,60.5223231 L128.437846,56.9467846 L125.104431,54.5649692 L123.910708,54.5649692 L127.246938,58.1376923 L126.056031,61.2346154 L123.434908,61.9497231 L124.865123,58.8528 L122.244,57.1860923 L119.622877,54.5649692 L115.095738,55.5165692 L114.141323,56.9467846 L111.5202,58.8528 L110.0928,62.6648308 L106.041462,64.5708462 L104.371938,62.6648308 L102.465923,62.6648308 L102.465923,56.2316769 L106.517262,54.3256615 L109.853492,54.3256615 L108.899077,51.7045385 L106.517262,49.3227231 L110.805092,48.3683077 L112.950415,45.7471846 L113.904831,44.0804769 L111.5202,46.4622923 L107.947477,47.1774 L108.6654,42.8867538 L108.6654,39.7898308 L107.471677,38.3596154 L107.471677,36.4536 L109.1412,36.4536 C110.0562,38.3230154 111.038769,39.9840923 111.762323,41.9351538 L113.907646,44.0804769 L115.098554,42.6502615 L118.431969,42.6502615 L117.480369,40.0291385 L119.625692,38.8382308 L119.625692,41.6958462 L124.150015,42.6502615 L128.919277,38.8382308 L129.155769,36.9322154 L133.207108,34.0717846 C131.745923,34.2547846 130.346677,34.3955538 128.919277,34.7868923 L128.919277,31.6899692 L130.346677,28.1144308 L128.919277,28.1144308 L125.343738,31.4506615 L124.625815,33.1173692 L125.343738,35.502 L123.913523,39.7898308 L121.531708,38.3596154 L119.149892,35.9778 L116.050154,38.3596154 L114.622754,32.6415692 L120.577292,28.8295385 L120.577292,26.6842154 L124.152831,24.3024 L130.110185,22.8721846 L130.107369,22.875 Z M50.5220769,20.2538769 L52.1887846,23.1143077 L53.3796923,20.7296769 L56.2401231,20.2538769 L56.4766154,21.9234 L62.4339692,22.3992 L63.8641846,25.7354308 L67.4397231,27.1628308 L64.1034923,29.7867692 C62.0285538,28.3790769 59.9817692,27.1431231 57.9068308,25.7354308 L54.8099077,24.5417077 C53.4444462,25.4567077 52.3408154,26.4533538 50.9978769,27.4021385 L49.0918615,30.9776769 L46.2314308,30.9776769 L47.1858462,28.1172462 L43.6103077,31.4534769 L35.9862462,35.9806154 L36.7041692,39.0775385 L42.6615231,41.6986615 L43.6131231,45.75 L45.9977538,40.9835538 L49.0946769,39.7926462 L48.8525538,37.6473231 L52.4309077,31.6927846 L56.7187385,34.0746 L56.2457538,36.9322154 L59.8184769,35.5048154 L61.488,38.8410462 L60.7728923,40.7470615 L62.9154,41.6986615 L64.8242308,43.3681846 L64.1063077,45.2742 L58.8640615,47.1802154 L55.2885231,47.1802154 L50.0462769,49.5620308 L58.3854462,49.5620308 L55.5278308,53.8526769 L50.0462769,55.0435846 L47.4251538,58.6163077 L42.8980154,60.2858308 L40.992,65.5280769 L35.0346462,70.5310154 L34.3167231,77.4427846 L30.9804923,73.1521385 L26.2168615,72.2005385 L25.5017538,74.3430462 L21.6897231,74.3430462 L17.3962615,77.6792769 L16.4446615,81.9699231 L16.6811538,86.0184462 L20.0202,87.6879692 L22.1627077,86.7335538 L24.3080308,83.6366308 L26.4505385,83.6366308 C26.1352154,86.1029077 25.8058154,88.7944154 25.4989385,91.2606923 L29.3137846,91.0242 L29.3137846,94.5969231 L30.5018769,98.1724615 C32.0109231,99.1015385 34.2913846,99.1128 35.9834308,99.6026769 L35.9834308,98.8875692 L41.4621692,93.8818154 L46.7044154,97.9331538 L52.9010769,97.2180462 L55.5222,103.890508 L60.0493385,104.844923 L62.6704615,109.847862 C67.7409692,112.454908 72.8142923,115.1802 77.9214,117.711231 L77.4427846,122.714169 L73.6307538,127.956415 L74.1065538,135.343985 L71.7247385,140.825538 L66.9611077,142.016446 L64.8186,145.113369 L65.5337077,147.258692 L62.6732769,154.882754 L58.6219385,156.552277 L57.6703385,158.694785 L55.2857077,161.315908 L56.0036308,162.985431 C56.0036308,162.985431 55.1843538,163.466862 54.5706,163.937031 C53.9540308,164.401569 44.0861077,159.029815 43.8496154,158.218985 C43.6046769,157.408154 43.8496154,157.501062 43.8496154,157.501062 L45.9949385,149.164708 L43.8496154,145.110554 L44.0889231,137.7258 L41.7071077,134.389569 L36.2255538,129.386631 L30.5075077,119.141446 L32.1770308,113.8992 L31.4591077,112.468985 L33.6016154,109.608554 L35.9862462,102.938908 L35.9862462,102.220985 L34.0802308,101.505877 L31.4591077,101.745185 L27.1684615,98.6454462 L24.3108462,95.0755385 L17.8776923,93.4032 L11.2052308,89.3546769 C11.2052308,89.3518615 8.49683077,85.095 8.3448,84.3489231 C12.3567231,52.2619846 29.5868769,35.2739538 38.1315692,27.4021385 C38.8016308,27.2332154 41.4649846,26.6842154 41.4649846,26.6842154 L42.8952,22.8721846 L45.5163231,23.1114923 L47.4223385,24.3052154 L47.1858462,28.1172462 L47.6588308,27.1628308 L50.2799538,25.0203231 L50.0406462,21.4447846 L50.5164462,20.2538769 L50.5220769,20.2538769 Z M68.8699385,11.6754 L70.0608462,13.5814154 C67.7972769,14.3162308 65.7561231,15.1692923 63.6276923,16.2025385 L60.2914615,16.9204615 L58.8612462,18.3478615 L54.8099077,17.6327538 L55.7643231,16.4418462 L57.1945385,15.9688615 L59.8128462,14.5358308 L62.9125846,14.2965231 L64.8186,12.1512 L68.8699385,11.6754 Z M91.0298308,10.9602923 L99.1296923,14.2965231 L95.3176615,23.5929231 C90.7482923,25.7044615 86.3028,27.3458308 81.4969385,28.8323538 L78.6393231,33.8352923 L76.0182,35.0290154 L72.4426615,27.8779385 L75.0637846,25.0203231 L75.0637846,22.1598923 L67.9155231,17.1569538 L70.0608462,15.2509385 L81.4969385,11.9147077 L91.0298308,10.9602923 Z M91.5,0 C40.9638462,0 0,40.9666615 0,91.5 C0,142.036154 40.9638462,183 91.5,183 C142.030523,183 183,142.036154 183,91.5 C183,40.9666615 142.030523,0 91.5,0 Z" id="Fill-1"></path>
        </g>
    </g>
</svg>