<?xml version="1.0" encoding="UTF-8"?>
<svg version="1.1" viewBox="0 0 183 183" xmlns="http://www.w3.org/2000/svg">
<title>Globe</title>
<desc>Created with Sketch.</desc>
<g fill="none" fill-rule="evenodd">
<g fill="#1C2C40">
<path d="m63.149 46.941l3.0997 1.906-2.1453 2.8604-0.95442-4.7664zm43.129-6.4332l1.1937 3.0997-2.6211 1.4274-0.95442-4.0513 2.3818-0.47298v-0.0028154zm-47.895-12.391l3.0997 1.4302v2.6239h-2.6211l-2.8604-2.3846 2.3818-1.6695zm40.986-0.71229l1.906 2.1425-3.812 2.6239-2.1453-1.433 0.23931-2.1453 1.1909 0.24212 2.6211-1.4302zm30.738-4.53l4.0513 1.4302 7.3848 1.4302-1.6667 2.1425h-4.2878l4.2878 4.2935 3.0969-3.5784 0.95442-1.6667s11.768 10.704 18.584 22.402c6.8189 11.695 10.009 25.552 10.009 28.351l-2.1453 2.6211c-1.4302-1.6836-3.1363-3.0462-4.7636-4.5271l-3.5755 0.4758-3.0969-3.812v4.7664l2.6211 1.906 2.1425 2.3818 2.3846-3.0969c0.63346 1.174 1.0417 2.4015 1.6667 3.5755v3.5727l-2.6211 3.0969-5.2422 3.5755-3.5727 3.812c1.7399-0.12669 3.4601-0.48988 5.2422-0.71511v2.6211l-3.812 9.2936-3.3362 3.5755-2.8604 5.9545v10.009l0.95442 3.812-1.4302 1.6695-3.3362 2.3818-3.5755 2.8604 2.8604 3.3362-4.0513 3.5727 0.71511 2.3818-5.9574 6.6725h-4.0513l-3.5727 2.3846h-2.1453v-3.0997l-0.71792-5.4787c-1.2022-3.5361-2.5338-7.2102-3.812-10.724 0-2.5902 0.078831-5.0339 0.23931-7.6241l1.4302-3.5755-2.1453-4.2878 0.23649-5.718-2.8548-3.5755 1.4302-4.5271-2.6211-2.8604h-4.0513l-1.4302-1.4274-4.0513 2.3818-1.906-1.6695-3.5755 3.3362c-2.6408-2.9928-5.4534-6.0615-8.0999-9.0543l-3.3362-7.3876 2.8604-4.2878-1.4302-1.906 3.3334-7.8634c2.8098-3.4967 5.8476-6.8808 8.8178-10.245l5.2422-1.4302 5.9574-0.71792 4.0513 1.1937 5.718 5.718 1.906-2.1453 3.0997-0.71229 5.2422 1.906h3.812l2.8576-2.6211 1.1937-1.6695-2.6211-1.6695-4.7664-0.23931c-1.2951-1.7934-2.5141-3.6431-4.0513-5.2422l-1.4302 0.47862-0.71792 4.7636-2.8576-3.3334-0.4758-3.5755-3.3334-2.3818h-1.1937l3.3362 3.5727-1.1909 3.0969-2.6211 0.71511 1.4302-3.0969-2.6211-1.6667-2.6211-2.6211-4.5271 0.9516-0.95442 1.4302-2.6211 1.906-1.4274 3.812-4.0513 1.906-1.6695-1.906h-1.906v-6.4332l4.0513-1.906h3.3362l-0.95442-2.6211-2.3818-2.3818 4.2878-0.95442 2.1453-2.6211 0.95442-1.6667-2.3846 2.3818-3.5727 0.71511 0.71792-4.2906v-3.0969l-1.1937-1.4302v-1.906h1.6695c0.915 1.8694 1.8976 3.5305 2.6211 5.4816l2.1453 2.1453 1.1909-1.4302h3.3334l-0.9516-2.6211 2.1453-1.1909v2.8576l4.5243 0.95442 4.7693-3.812 0.23649-1.906 4.0513-2.8604c-1.4612 0.183-2.8604 0.32377-4.2878 0.71511v-3.0969l1.4274-3.5755h-1.4274l-3.5755 3.3362-0.71792 1.6667 0.71792 2.3846-1.4302 4.2878-2.3818-1.4302-2.3818-2.3818-3.0997 2.3818-1.4274-5.718 5.9545-3.812v-2.1453l3.5755-2.3818 5.9574-1.4302-0.002816 0.0028154zm-79.585-2.6211l1.6667 2.8604 1.1909-2.3846 2.8604-0.4758 0.23649 1.6695 5.9574 0.4758 1.4302 3.3362 3.5755 1.4274-3.3362 2.6239c-2.0749-1.4077-4.1217-2.6436-6.1967-4.0513l-3.0969-1.1937c-1.3655 0.915-2.4691 1.9116-3.812 2.8604l-1.906 3.5755h-2.8604l0.95442-2.8604-3.5755 3.3362-7.6241 4.5271 0.71792 3.0969 5.9574 2.6211 0.9516 4.0513 2.3846-4.7664 3.0969-1.1909-0.24212-2.1453 3.5784-5.9545 4.2878 2.3818-0.47298 2.8576 3.5727-1.4274 1.6695 3.3362-0.71511 1.906 2.1425 0.9516 1.9088 1.6695-0.71792 1.906-5.2422 1.906h-3.5755l-5.2422 2.3818h8.3392l-2.8576 4.2906-5.4816 1.1909-2.6211 3.5727-4.5271 1.6695-1.906 5.2422-5.9574 5.0029-0.71792 6.9118-3.3362-4.2906-4.7636-0.9516-0.71511 2.1425h-3.812l-4.2935 3.3362-0.9516 4.2906 0.23649 4.0485 3.339 1.6695 2.1425-0.95442 2.1453-3.0969h2.1425c-0.31532 2.4663-0.64472 5.1578-0.9516 7.6241l3.8148-0.23649v3.5727l1.1881 3.5755c1.509 0.92908 3.7895 0.94034 5.4816 1.4302v-0.71511l5.4787-5.0058 5.2422 4.0513 6.1967-0.71511 2.6211 6.6725 4.5271 0.95442 2.6211 5.0029c5.0705 2.607 10.144 5.3323 15.251 7.8634l-0.47862 5.0029-3.812 5.2422 0.4758 7.3876-2.3818 5.4816-4.7636 1.1909-2.1425 3.0969 0.71511 2.1453-2.8604 7.6241-4.0513 1.6695-0.9516 2.1425-2.3846 2.6211 0.71792 1.6695s-0.81928 0.48143-1.433 0.9516c-0.61657 0.46454-10.484-4.9072-10.721-5.718-0.24494-0.81083 0-0.71792 0-0.71792l2.1453-8.3364-2.1453-4.0542 0.23931-7.3848-2.3818-3.3362-5.4816-5.0029-5.718-10.245 1.6695-5.2422-0.71792-1.4302 2.1425-2.8604 2.3846-6.6696v-0.71792l-1.906-0.71511-2.6211 0.23931-4.2906-3.0997-2.8576-3.5699-6.4332-1.6723-6.6725-4.0485c0-0.0028154-2.7084-4.2597-2.8604-5.0058 4.0119-32.087 21.242-49.075 29.787-56.947 0.67006-0.16892 3.3334-0.71792 3.3334-0.71792l1.4302-3.812 2.6211 0.23931 1.906 1.1937-0.23649 3.812 0.47298-0.95442 2.6211-2.1425-0.23931-3.5755 0.4758-1.1909h0.0056307zm18.348-8.5785l1.1909 1.906c-2.2636 0.73482-4.3047 1.5879-6.4332 2.6211l-3.3362 0.71792-1.4302 1.4274-4.0513-0.71511 0.95442-1.1909 1.4302-0.47298 2.6183-1.433 3.0997-0.23931 1.906-2.1453 4.0513-0.4758zm22.16-0.71511l8.0999 3.3362-3.812 9.2964c-4.5694 2.1115-9.0149 3.7529-13.821 5.2394l-2.8576 5.0029-2.6211 1.1937-3.5755-7.1511 2.6211-2.8576v-2.8604l-7.1483-5.0029 2.1453-1.906 11.436-3.3362 9.5329-0.95442zm0.47017-10.96c-50.536 0-91.5 40.967-91.5 91.5 0 50.536 40.964 91.5 91.5 91.5 50.531 0 91.5-40.964 91.5-91.5 0-50.533-40.969-91.5-91.5-91.5z"/>
</g>
</g>
</svg>
