<?xml version="1.0" standalone="no"?>
<!DOCTYPE svg PUBLIC "-//W3C//DTD SVG 20010904//EN"
 "http://www.w3.org/TR/2001/REC-SVG-20010904/DTD/svg10.dtd">
<svg version="1.0" xmlns="http://www.w3.org/2000/svg"
 width="500.000000pt" height="500.000000pt" viewBox="0 0 500.000000 500.000000"
 preserveAspectRatio="xMidYMid meet">
<metadata>
Created by potrace 1.11, written by Peter Selinger 2001-2013
</metadata>
<g transform="translate(0.000000,500.000000) scale(0.100000,-0.100000)"
fill="#000000" stroke="none">
<path d="M2335 4990 c-22 -4 -62 -11 -90 -15 -75 -11 -243 -68 -336 -115 -114
-57 -227 -135 -325 -225 l-82 -75 -45 19 c-93 40 -144 110 -151 211 -5 60 -13
78 -45 94 -35 18 -83 4 -101 -29 -20 -37 -14 -137 11 -212 26 -80 90 -152 169
-191 l59 -30 -36 -53 c-95 -143 -174 -365 -197 -559 -3 -25 -6 -879 -6 -1899
-1 -1656 1 -1856 15 -1877 21 -32 51 -38 121 -24 33 6 70 13 84 16 134 26 382
113 498 176 286 155 493 386 612 681 13 31 26 57 29 58 3 0 265 2 581 2 569 2
575 2 572 22 -6 33 -93 247 -115 279 -11 17 -37 45 -58 62 l-37 31 29 34 c165
192 305 564 335 892 3 40 8 75 10 78 3 5 12 125 19 254 9 161 2 1011 -10 1170
-5 64 -7 82 -19 148 -27 144 -89 305 -168 435 -21 34 -38 67 -38 72 0 5 15 16
33 25 44 21 121 98 143 143 34 73 45 144 35 239 -2 23 -45 53 -76 53 -51 0
-77 -36 -79 -112 -3 -81 -28 -133 -84 -172 -72 -51 -71 -51 -153 26 -196 186
-449 314 -719 363 -52 9 -339 13 -385 5z m370 -166 c202 -33 443 -150 587
-284 l28 -25 -53 -3 c-130 -7 -313 -61 -422 -125 -113 -66 -229 -177 -300
-284 -31 -48 -41 -52 -50 -24 -8 27 -77 130 -112 167 -73 79 -184 148 -303
188 -75 25 -218 59 -295 70 -22 3 -49 8 -60 10 -11 3 -22 5 -24 5 -9 2 28 36
94 86 149 112 371 204 532 221 32 4 60 8 62 10 7 6 269 -4 316 -12z m-995
-469 c52 -9 107 -18 121 -20 14 -3 66 -16 115 -30 224 -65 359 -185 431 -383
45 -122 55 -202 57 -425 1 -207 1 -209 25 -228 44 -36 99 -21 121 32 22 52 17
495 -6 518 -5 6 79 161 117 214 135 188 343 303 585 321 34 3 88 8 120 11 l59
6 53 -84 c78 -125 141 -285 167 -427 14 -73 13 -295 -1 -375 -102 -579 -596
-990 -1184 -986 -47 1 -96 3 -110 5 -14 3 -46 7 -72 11 -76 9 -216 53 -308 96
-247 116 -436 303 -560 554 -78 160 -110 286 -117 460 -10 250 53 473 194 688
41 61 48 67 72 63 14 -3 69 -13 121 -21z m1990 -1487 c-1 -101 -3 -208 -4
-238 -6 -108 -17 -250 -21 -268 -2 -10 -6 -45 -9 -78 -19 -173 -89 -427 -159
-569 -151 -308 -388 -495 -732 -573 -49 -11 -118 -24 -153 -27 -62 -7 -63 -6
-57 17 33 145 40 232 39 468 0 183 -3 233 -20 385 -11 101 -35 134 -97 135
-29 0 -77 -54 -72 -81 22 -140 30 -259 30 -454 0 -199 -4 -247 -25 -367 -32
-177 -110 -375 -200 -508 -120 -177 -315 -331 -540 -426 -81 -34 -256 -88
-322 -100 l-38 -6 0 69 0 70 58 6 c124 13 314 85 427 161 276 186 444 498 447
829 1 99 0 109 -22 132 -29 30 -78 33 -111 6 -21 -17 -23 -27 -26 -123 -1 -58
-9 -139 -18 -181 -64 -312 -312 -569 -624 -647 -97 -25 -131 -26 -131 -2 -2
174 1 2526 3 2528 2 2 30 -38 62 -89 114 -178 330 -366 529 -462 444 -213 958
-173 1364 107 80 56 225 192 284 268 48 61 128 188 128 202 0 6 3 9 6 5 3 -3
5 -88 4 -189z m-330 -1663 c25 -13 63 -54 83 -91 5 -8 -38 -11 -145 -12 l-151
0 44 26 c24 14 64 41 89 59 25 18 46 33 48 33 2 0 16 -7 32 -15z"/>
<path d="M1898 4074 c-2 -1 -16 -4 -33 -7 -79 -12 -156 -71 -196 -149 -49 -96
-30 -224 44 -305 55 -60 107 -85 190 -91 60 -4 73 -2 131 27 104 51 157 135
158 245 1 112 -63 211 -166 256 -35 16 -120 32 -128 24z m89 -171 c40 -26 63
-86 52 -134 -35 -156 -267 -113 -246 45 8 60 61 106 122 106 26 0 57 -7 72
-17z"/>
<path d="M3043 4069 c-87 -16 -160 -72 -204 -159 -34 -65 -32 -167 4 -236 48
-94 144 -154 247 -154 234 0 362 280 209 454 -67 76 -162 111 -256 95z m138
-198 c89 -44 75 -191 -21 -220 -120 -36 -211 100 -130 193 40 45 95 55 151 27z"/>
</g>
</svg>
